<svg id="Camada_1" data-name="Camada 1" xmlns="http://www.w3.org/2000/svg" viewBox="0 0 87.64 16.06"><defs><style>.cls-1{fill:#ffffff;fill-rule:evenodd;}.cls-2{fill:none;stroke:#ffffff;}</style></defs><title>logo_transparencia_anotaai</title><path class="cls-1" d="M35.92,21.58h9.8v9.8h-9.8Zm-.72-.72H46.44V32.1H35.2V20.86ZM44,23.31H37.65v6.34H44ZM38.37,24h2.45v2.45H38.37Zm5,3.68H41.94v1.43h1.43Z" transform="translate(-6.55 -16.04)"/><path class="cls-2" d="M7.33,31.59,14,17.1h.68l6.71,14.49h-.77l-6.43-14h.31l-6.44,14Zm2.32-4.24.27-.6h8.86l.27.6Z" transform="translate(-6.55 -16.04)"/><path class="cls-2" d="M28.84,20.77a4.84,4.84,0,0,1,2.29.51,3.69,3.69,0,0,1,1.5,1.53,5.16,5.16,0,0,1,.54,2.47v6.31h-.69V25.32a4,4,0,0,0-1-2.92,3.66,3.66,0,0,0-2.73-1,4.71,4.71,0,0,0-2.32.54A3.66,3.66,0,0,0,25,23.48a5,5,0,0,0-.52,2.32v5.79h-.68V20.85h.66v3l-.08-.18A4.35,4.35,0,0,1,26,21.55,4.92,4.92,0,0,1,28.84,20.77Z" transform="translate(-6.55 -16.04)"/><path class="cls-2" d="M48.31,21.31V20.7h6.25v.61Zm4.76,10.2a2.67,2.67,0,0,1-2-.74,2.82,2.82,0,0,1-.71-2V18.34H51V28.65a2.37,2.37,0,0,0,.54,1.68,2,2,0,0,0,1.57.58,2.44,2.44,0,0,0,1.74-.64l.35.5a2.56,2.56,0,0,1-1,.55A3.69,3.69,0,0,1,53.07,31.51Z" transform="translate(-6.55 -16.04)"/><path class="cls-2" d="M61,31.51a5.16,5.16,0,0,1-2.08-.37,2.9,2.9,0,0,1-1.32-1.07,2.84,2.84,0,0,1-.46-1.58A2.94,2.94,0,0,1,57.5,27,2.64,2.64,0,0,1,58.73,26a5.48,5.48,0,0,1,2.31-.4H65.2v.56H61a3.73,3.73,0,0,0-2.5.66,2.15,2.15,0,0,0-.73,1.68,2.18,2.18,0,0,0,.85,1.81,3.68,3.68,0,0,0,2.36.67,4.22,4.22,0,0,0,2.46-.67A4.1,4.1,0,0,0,65,28.34l.23.46a3.88,3.88,0,0,1-1.49,2A4.7,4.7,0,0,1,61,31.51Zm4-.06V28.94l0-.37V24.49a3.21,3.21,0,0,0-.85-2.42,3.4,3.4,0,0,0-2.46-.83,5.49,5.49,0,0,0-2.15.41,5.68,5.68,0,0,0-1.68,1l-.37-.49a5.37,5.37,0,0,1,1.88-1.15,6.35,6.35,0,0,1,2.34-.43,4.08,4.08,0,0,1,3,1,3.8,3.8,0,0,1,1,2.88v7Z" transform="translate(-6.55 -16.04)"/><path class="cls-2" d="M72.94,31.45,79.65,17h.68L87,31.45h-.77l-6.44-14h.31l-6.43,14Zm2.32-4.24.27-.61h8.86l.27.61Z" transform="translate(-6.55 -16.04)"/><path class="cls-2" d="M88.67,18.88l2.88-2.34h1.12L89.5,18.88Zm.71,12.57V20.7h.68V31.45Z" transform="translate(-6.55 -16.04)"/></svg>
